<?xml version="1.0" encoding="UTF-8" standalone="no"?>
<!-- Created with Inkscape (http://www.inkscape.org/) -->

<svg
   xmlns:dc="http://purl.org/dc/elements/1.1/"
   xmlns:cc="http://creativecommons.org/ns#"
   xmlns:rdf="http://www.w3.org/1999/02/22-rdf-syntax-ns#"
   xmlns:svg="http://www.w3.org/2000/svg"
   xmlns="http://www.w3.org/2000/svg"
   xmlns:sodipodi="http://sodipodi.sourceforge.net/DTD/sodipodi-0.dtd"
   xmlns:inkscape="http://www.inkscape.org/namespaces/inkscape"
   width="500"
   height="500"
   id="svg2"
   version="1.1"
   inkscape:version="0.48.4 r9939"
   sodipodi:docname="bricksframework.svg"
   inkscape:export-filename="/home/gioyik/artwork/logo.png"
   inkscape:export-xdpi="90"
   inkscape:export-ydpi="90">
  <defs
     id="defs4" />
  <sodipodi:namedview
     id="base"
     pagecolor="#f36e0e"
     bordercolor="#666666"
     borderopacity="1.0"
     inkscape:pageopacity="0"
     inkscape:pageshadow="2"
     inkscape:zoom="0.7"
     inkscape:cx="244.6289"
     inkscape:cy="244.03158"
     inkscape:document-units="px"
     inkscape:current-layer="layer1"
     showgrid="true"
     inkscape:window-width="1280"
     inkscape:window-height="776"
     inkscape:window-x="0"
     inkscape:window-y="24"
     inkscape:window-maximized="1"
     inkscape:object-paths="true"
     inkscape:snap-nodes="false">
    <inkscape:grid
       type="xygrid"
       id="grid3755"
       empspacing="5"
       visible="true"
       enabled="true"
       snapvisiblegridlinesonly="true" />
  </sodipodi:namedview>
  <metadata
     id="metadata7">
    <rdf:RDF>
      <cc:Work
         rdf:about="">
        <dc:format>image/svg+xml</dc:format>
        <dc:type
           rdf:resource="http://purl.org/dc/dcmitype/StillImage" />
        <dc:title></dc:title>
      </cc:Work>
    </rdf:RDF>
  </metadata>
  <g
     inkscape:label="Layer 1"
     inkscape:groupmode="layer"
     id="layer1"
     transform="translate(0,-552.36218)">
    <g
       id="g35"
       transform="matrix(1.4656458,0,0,1.4656458,-306.01404,-149.53051)"
       style="fill:#76828f;fill-opacity:1;stroke:none">
      <path
         d="m 221.939,637.935 c -3.473,-4.09 -4.999,-8.827 -4.576,-14.215 0.454,-5.355 2.726,-9.769 6.815,-13.242 3.667,-3.147 7.886,-4.722 12.657,-4.722 5.647,0 10.58,2.32 14.799,6.961 0.713,0.845 1.346,1.721 1.898,2.629 0.39,0.617 0.584,1.314 0.584,2.094 0,1.071 -0.382,1.988 -1.144,2.75 -0.763,0.764 -1.68,1.145 -2.75,1.145 -1.234,0 -2.142,-0.39 -2.727,-1.168 -0.584,-0.779 -1.185,-1.574 -1.801,-2.386 -2.11,-2.466 -4.755,-3.829 -7.936,-4.09 -3.213,-0.259 -6.053,0.657 -8.519,2.751 -2.467,2.094 -3.83,4.73 -4.089,7.911 -0.26,3.213 0.665,6.053 2.775,8.519 1.72,1.655 4.511,2.986 8.373,3.992 6.783,1.493 11.943,4.252 15.481,8.276 3.667,4.349 5.501,9.282 5.501,14.799 0,0.747 -0.033,1.493 -0.097,2.239 -0.52,6.426 -3.23,11.717 -8.13,15.87 -4.381,3.732 -9.364,5.599 -14.945,5.599 -6.979,0 -12.982,-2.758 -18.012,-8.276 -0.682,-0.746 -1.298,-1.541 -1.85,-2.385 -0.52,-0.682 -0.779,-1.461 -0.779,-2.337 0,-1.071 0.381,-1.987 1.144,-2.75 0.762,-0.763 1.68,-1.145 2.75,-1.145 1.395,0 2.499,0.601 3.311,1.801 0.389,0.617 0.843,1.201 1.363,1.753 2.758,3.311 6.296,5.145 10.613,5.501 4.284,0.325 8.064,-0.9 11.343,-3.676 3.278,-2.774 5.095,-6.304 5.452,-10.588 0.357,-4.315 -0.844,-8.113 -3.602,-11.392 -2.402,-2.693 -6.151,-4.705 -11.246,-6.036 -4.932,-0.877 -9.151,-2.937 -12.656,-6.182 z"
         id="path37"
         inkscape:connector-curvature="0"
         style="fill:#76828f;fill-opacity:1;stroke:none" />
      <path
         d="m 307.327,670.405 c 1.071,0 1.987,0.382 2.75,1.144 0.763,0.764 1.145,1.68 1.145,2.751 0,1.07 -0.374,1.996 -1.12,2.774 -5.031,4.382 -10.953,6.572 -17.769,6.572 -7.53,0 -13.956,-2.661 -19.278,-7.983 -5.323,-5.322 -7.984,-11.749 -7.984,-19.278 0,-7.529 2.661,-13.955 7.984,-19.278 5.322,-5.322 11.748,-7.983 19.278,-7.983 7.529,0 13.955,2.661 19.278,7.983 5.322,5.323 7.983,11.749 7.983,19.278 0,1.071 -0.382,1.988 -1.144,2.75 -0.764,0.764 -1.68,1.145 -2.751,1.145 H 273.2 c 0.713,3.732 2.499,7.027 5.355,9.883 3.797,3.797 8.389,5.695 13.777,5.695 4.868,0 9.055,-1.541 12.56,-4.625 0.714,-0.551 1.526,-0.828 2.435,-0.828 z m 4.138,-17.915 c -0.714,-3.731 -2.499,-7.026 -5.355,-9.883 -3.797,-3.797 -8.39,-5.695 -13.777,-5.695 -5.388,0 -9.979,1.898 -13.777,5.695 -2.856,2.856 -4.642,6.151 -5.355,9.883 h 38.264 z"
         id="path39"
         inkscape:connector-curvature="0"
         style="fill:#76828f;fill-opacity:1;stroke:none" />
      <path
         d="m 369.737,670.308 c 1.07,0 1.987,0.382 2.75,1.145 0.763,0.763 1.145,1.679 1.145,2.75 0,1.071 -0.406,2.028 -1.218,2.872 -5.03,4.382 -10.953,6.572 -17.769,6.572 -7.529,0 -13.956,-2.661 -19.278,-7.983 -5.322,-5.322 -7.983,-11.749 -7.983,-19.278 0,-7.529 2.661,-13.955 7.983,-19.278 5.322,-5.322 11.749,-7.983 19.278,-7.983 6.815,0 12.738,2.19 17.769,6.572 0.908,0.812 1.363,1.817 1.363,3.018 0,1.071 -0.382,1.988 -1.144,2.751 -0.764,0.763 -1.68,1.144 -2.751,1.144 -0.941,0 -1.77,-0.292 -2.482,-0.876 -3.636,-3.213 -7.887,-4.819 -12.755,-4.819 -5.388,0 -9.979,1.898 -13.777,5.695 -3.797,3.798 -5.695,8.391 -5.695,13.777 0,5.388 1.898,9.979 5.695,13.777 3.798,3.797 8.39,5.695 13.777,5.695 4.868,0 9.104,-1.59 12.706,-4.771 0.682,-0.521 1.477,-0.78 2.386,-0.78 z"
         id="path41"
         inkscape:connector-curvature="0"
         style="fill:#76828f;fill-opacity:1;stroke:none" />
      <path
         d="m 385.802,605.756 h 15.578 c 5.387,0 9.979,1.898 13.777,5.695 3.797,3.798 5.695,8.391 5.695,13.777 0,5.388 -1.898,9.979 -5.695,13.776 2.401,1.137 4.624,2.711 6.669,4.723 4.543,4.576 6.815,10.094 6.815,16.552 0,6.459 -2.28,11.968 -6.84,16.527 -4.56,4.561 -10.069,6.84 -16.527,6.84 h -19.473 c -1.071,0 -1.988,-0.381 -2.751,-1.144 -0.763,-0.763 -1.144,-1.68 -1.144,-2.751 V 609.65 c 0,-1.071 0.381,-1.987 1.144,-2.751 0.763,-0.761 1.68,-1.143 2.752,-1.143 z m 3.894,7.789 v 23.367 h 11.684 c 3.213,0 5.964,-1.145 8.252,-3.432 2.288,-2.288 3.432,-5.039 3.432,-8.252 0,-3.213 -1.144,-5.964 -3.432,-8.252 -2.288,-2.288 -5.039,-3.432 -8.252,-3.432 h -11.684 z m 0,31.156 v 31.156 h 15.578 c 4.316,0 7.991,-1.517 11.026,-4.552 3.034,-3.034 4.552,-6.71 4.552,-11.026 0,-4.316 -1.518,-7.991 -4.552,-11.026 -3.035,-3.034 -6.71,-4.552 -11.026,-4.552 h -15.578 z"
         id="path43"
         inkscape:connector-curvature="0"
         style="fill:#76828f;fill-opacity:1;stroke:none" />
      <path
         d="m 490.954,656.385 c 0,7.529 -2.661,13.956 -7.983,19.278 -5.323,5.322 -11.749,7.983 -19.278,7.983 -7.529,0 -13.956,-2.661 -19.278,-7.983 -5.322,-5.322 -7.983,-11.749 -7.983,-19.278 0,-7.529 2.661,-13.955 7.983,-19.278 5.322,-5.322 11.749,-7.983 19.278,-7.983 7.529,0 13.955,2.661 19.278,7.983 5.322,5.323 7.983,11.748 7.983,19.278 z m -27.262,-19.473 c -5.388,0 -9.979,1.898 -13.777,5.695 -3.797,3.798 -5.695,8.391 -5.695,13.777 0,5.388 1.898,9.979 5.695,13.777 3.798,3.797 8.39,5.695 13.777,5.695 5.387,0 9.979,-1.898 13.777,-5.695 3.797,-3.798 5.695,-8.39 5.695,-13.777 0,-5.387 -1.898,-9.979 -5.695,-13.777 -3.797,-3.796 -8.39,-5.695 -13.777,-5.695 z"
         id="path45"
         inkscape:connector-curvature="0"
         style="fill:#76828f;fill-opacity:1;stroke:none" />
      <path
         d="m 517.048,656.336 -17.38,-20.787 c -0.617,-0.713 -0.925,-1.558 -0.925,-2.531 0,-1.071 0.381,-1.987 1.144,-2.751 0.763,-0.762 1.68,-1.144 2.751,-1.144 1.071,0 2.028,0.406 2.872,1.217 l 16.601,19.911 16.601,-19.911 c 0.844,-0.811 1.801,-1.217 2.872,-1.217 1.071,0 1.987,0.382 2.751,1.144 0.762,0.764 1.144,1.68 1.144,2.751 0,0.974 -0.309,1.818 -0.925,2.531 l -17.38,20.787 17.525,21.03 c 0.52,0.682 0.779,1.478 0.779,2.386 0,1.071 -0.382,1.988 -1.144,2.751 -0.764,0.763 -1.68,1.144 -2.751,1.144 -1.071,0 -1.979,-0.39 -2.727,-1.168 l -16.746,-20.058 -16.746,20.058 c -0.747,0.778 -1.655,1.168 -2.727,1.168 -1.072,0 -1.988,-0.381 -2.751,-1.144 -0.763,-0.763 -1.144,-1.68 -1.144,-2.751 0,-0.908 0.26,-1.704 0.779,-2.386 l 17.527,-21.03 z"
         id="path47"
         inkscape:connector-curvature="0"
         style="fill:#76828f;fill-opacity:1;stroke:none" />
    </g>
  </g>
</svg>
