<?xml version="1.0" encoding="UTF-8" standalone="no"?>
<!-- Created with Inkscape (http://www.inkscape.org/) -->

<svg
   xmlns:dc="http://purl.org/dc/elements/1.1/"
   xmlns:cc="http://creativecommons.org/ns#"
   xmlns:rdf="http://www.w3.org/1999/02/22-rdf-syntax-ns#"
   xmlns:svg="http://www.w3.org/2000/svg"
   xmlns="http://www.w3.org/2000/svg"
   xmlns:sodipodi="http://sodipodi.sourceforge.net/DTD/sodipodi-0.dtd"
   xmlns:inkscape="http://www.inkscape.org/namespaces/inkscape"
   width="100"
   height="100"
   id="svg2"
   version="1.1"
   inkscape:version="0.48.4 r9939"
   sodipodi:docname="molecules.svg">
  <defs
     id="defs4" />
  <sodipodi:namedview
     id="base"
     pagecolor="#ffffff"
     bordercolor="#666666"
     borderopacity="1.0"
     inkscape:pageopacity="0.0"
     inkscape:pageshadow="2"
     inkscape:zoom="3.959798"
     inkscape:cx="2.0677713"
     inkscape:cy="26.820601"
     inkscape:document-units="px"
     inkscape:current-layer="layer1"
     showgrid="true"
     inkscape:showpageshadow="false"
     showborder="true"
     inkscape:window-width="1280"
     inkscape:window-height="776"
     inkscape:window-x="0"
     inkscape:window-y="24"
     inkscape:window-maximized="1">
    <inkscape:grid
       type="xygrid"
       id="grid3959"
       empspacing="5"
       visible="true"
       enabled="true"
       snapvisiblegridlinesonly="true" />
  </sodipodi:namedview>
  <metadata
     id="metadata7">
    <rdf:RDF>
      <cc:Work
         rdf:about="">
        <dc:format>image/svg+xml</dc:format>
        <dc:type
           rdf:resource="http://purl.org/dc/dcmitype/StillImage" />
        <dc:title />
      </cc:Work>
    </rdf:RDF>
  </metadata>
  <g
     inkscape:label="Layer 1"
     inkscape:groupmode="layer"
     id="layer1"
     transform="translate(0,-952.36218)">
    <path
       sodipodi:type="arc"
       style="fill:none;stroke:#ff443c;stroke-width:4.78703356000000024;stroke-linecap:round;stroke-linejoin:round;stroke-miterlimit:4;stroke-opacity:1;stroke-dasharray:none"
       id="path2985"
       sodipodi:cx="44.067905"
       sodipodi:cy="43.557728"
       sodipodi:rx="32.70369"
       sodipodi:ry="32.70369"
       d="m 76.771595,43.557728 c 0,18.061749 -14.641941,32.703689 -32.70369,32.703689 -18.061749,0 -32.703689,-14.64194 -32.703689,-32.703689 0,-18.061749 14.64194,-32.70369 32.703689,-32.70369 18.061749,0 32.70369,14.641941 32.70369,32.70369 z"
       transform="matrix(0.3561537,0,0,0.3561537,2.0735391,1019.333)" />
    <path
       sodipodi:type="arc"
       style="fill:none;stroke:#ff443c;stroke-width:4.78703356000000024;stroke-linecap:round;stroke-linejoin:round;stroke-miterlimit:4;stroke-opacity:1;stroke-dasharray:none"
       id="path2985-7"
       sodipodi:cx="44.067905"
       sodipodi:cy="43.557728"
       sodipodi:rx="32.70369"
       sodipodi:ry="32.70369"
       d="m 76.771595,43.557728 c 0,18.061749 -14.641941,32.703689 -32.70369,32.703689 -18.061749,0 -32.703689,-14.64194 -32.703689,-32.703689 0,-18.061749 14.64194,-32.70369 32.703689,-32.70369 18.061749,0 32.70369,14.641941 32.70369,32.70369 z"
       transform="matrix(0.3561537,0,0,0.3561537,1.982722,987.09892)" />
    <path
       sodipodi:type="arc"
       style="fill:none;stroke:#ff443c;stroke-width:4.78725897999999983;stroke-linecap:round;stroke-linejoin:round;stroke-miterlimit:4;stroke-opacity:1;stroke-dasharray:none"
       id="path2985-73"
       sodipodi:cx="44.067905"
       sodipodi:cy="43.557728"
       sodipodi:rx="32.70369"
       sodipodi:ry="32.70369"
       d="m 76.771595,43.557728 c 0,18.061749 -14.641941,32.703689 -32.70369,32.703689 -18.061749,0 -32.703689,-14.64194 -32.703689,-32.703689 0,-18.061749 14.64194,-32.70369 32.703689,-32.70369 18.061749,0 32.70369,14.641941 32.70369,32.70369 z"
       transform="matrix(0.3561537,0,0,0.3561537,1.7301839,954.26897)" />
    <path
       sodipodi:type="arc"
       style="fill:none;stroke:#ff443c;stroke-width:4.78703356000000024;stroke-linecap:round;stroke-linejoin:round;stroke-miterlimit:4;stroke-opacity:1;stroke-dasharray:none"
       id="path2985-71"
       sodipodi:cx="44.067905"
       sodipodi:cy="43.557728"
       sodipodi:rx="32.70369"
       sodipodi:ry="32.70369"
       d="m 76.771595,43.557728 c 0,18.061749 -14.641941,32.703689 -32.70369,32.703689 -18.061749,0 -32.703689,-14.64194 -32.703689,-32.703689 0,-18.061749 14.64194,-32.70369 32.703689,-32.70369 18.061749,0 32.70369,14.641941 32.70369,32.70369 z"
       transform="matrix(0.3561537,0,0,0.3561537,34.307604,954.26896)" />
    <path
       sodipodi:type="arc"
       style="fill:none;stroke:#ff443c;stroke-width:4.78703356000000024;stroke-linecap:round;stroke-linejoin:round;stroke-miterlimit:4;stroke-opacity:1;stroke-dasharray:none"
       id="path2985-5"
       sodipodi:cx="44.067905"
       sodipodi:cy="43.557728"
       sodipodi:rx="32.70369"
       sodipodi:ry="32.70369"
       d="m 76.771595,43.557728 c 0,18.061749 -14.641941,32.703689 -32.70369,32.703689 -18.061749,0 -32.703689,-14.64194 -32.703689,-32.703689 0,-18.061749 14.64194,-32.70369 32.703689,-32.70369 18.061749,0 32.70369,14.641941 32.70369,32.70369 z"
       transform="matrix(0.3561537,0,0,0.3561537,66.885023,954.26896)" />
    <path
       sodipodi:type="arc"
       style="fill:none;stroke:#ff443c;stroke-width:4.78703356000000024;stroke-linecap:round;stroke-linejoin:round;stroke-miterlimit:4;stroke-opacity:1;stroke-dasharray:none"
       id="path2985-0"
       sodipodi:cx="44.067905"
       sodipodi:cy="43.557728"
       sodipodi:rx="32.70369"
       sodipodi:ry="32.70369"
       d="m 76.771595,43.557728 c 0,18.061749 -14.641941,32.703689 -32.70369,32.703689 -18.061749,0 -32.703689,-14.64194 -32.703689,-32.703689 0,-18.061749 14.64194,-32.70369 32.703689,-32.70369 18.061749,0 32.70369,14.641941 32.70369,32.70369 z"
       transform="matrix(0.3561537,0,0,0.3561537,67.137562,986.84638)" />
    <path
       sodipodi:type="arc"
       style="fill:none;stroke:#ff443c;stroke-width:4.78703356000000024;stroke-linecap:round;stroke-linejoin:round;stroke-miterlimit:4;stroke-opacity:1;stroke-dasharray:none"
       id="path2985-6"
       sodipodi:cx="44.067905"
       sodipodi:cy="43.557728"
       sodipodi:rx="32.70369"
       sodipodi:ry="32.70369"
       d="m 76.771595,43.557728 c 0,18.061749 -14.641941,32.703689 -32.70369,32.703689 -18.061749,0 -32.703689,-14.64194 -32.703689,-32.703689 0,-18.061749 14.64194,-32.70369 32.703689,-32.70369 18.061749,0 32.70369,14.641941 32.70369,32.70369 z"
       transform="matrix(0.3561537,0,0,0.3561537,66.632485,1019.6763)" />
    <path
       sodipodi:type="arc"
       style="fill:none;stroke:#ff443c;stroke-width:4.78703356000000024;stroke-linecap:round;stroke-linejoin:round;stroke-miterlimit:4;stroke-opacity:1;stroke-dasharray:none"
       id="path2985-3"
       sodipodi:cx="44.067905"
       sodipodi:cy="43.557728"
       sodipodi:rx="32.70369"
       sodipodi:ry="32.70369"
       d="m 76.771595,43.557728 c 0,18.061749 -14.641941,32.703689 -32.70369,32.703689 -18.061749,0 -32.703689,-14.64194 -32.703689,-32.703689 0,-18.061749 14.64194,-32.70369 32.703689,-32.70369 18.061749,0 32.70369,14.641941 32.70369,32.70369 z"
       transform="matrix(0.3561537,0,0,0.3561537,34.307603,1019.4238)" />
    <path
       sodipodi:type="arc"
       style="fill:none;stroke:#ff443c;stroke-width:4.78703356000000024;stroke-linecap:round;stroke-linejoin:round;stroke-miterlimit:4;stroke-opacity:1;stroke-dasharray:none"
       id="path2985-78"
       sodipodi:cx="44.067905"
       sodipodi:cy="43.557728"
       sodipodi:rx="32.70369"
       sodipodi:ry="32.70369"
       d="m 76.771595,43.557728 c 0,18.061749 -14.641941,32.703689 -32.70369,32.703689 -18.061749,0 -32.703689,-14.64194 -32.703689,-32.703689 0,-18.061749 14.64194,-32.70369 32.703689,-32.70369 18.061749,0 32.70369,14.641941 32.70369,32.70369 z"
       transform="matrix(0.3561537,0,0,0.3561537,34.307604,986.84638)" />
  </g>
</svg>
