<?xml version="1.0" encoding="UTF-8" standalone="no"?>
<!-- Created with Inkscape (http://www.inkscape.org/) -->

<svg
   xmlns:dc="http://purl.org/dc/elements/1.1/"
   xmlns:cc="http://creativecommons.org/ns#"
   xmlns:rdf="http://www.w3.org/1999/02/22-rdf-syntax-ns#"
   xmlns:svg="http://www.w3.org/2000/svg"
   xmlns="http://www.w3.org/2000/svg"
   xmlns:sodipodi="http://sodipodi.sourceforge.net/DTD/sodipodi-0.dtd"
   xmlns:inkscape="http://www.inkscape.org/namespaces/inkscape"
   width="700"
   height="700"
   id="svg2"
   version="1.1"
   inkscape:version="0.48.4 r9939"
   sodipodi:docname="zydialabs-logo-inverted.svg"
   inkscape:export-filename="/home/gioyik/art-zydia/zydialabs-logo-inverted.png"
   inkscape:export-xdpi="90"
   inkscape:export-ydpi="90">
  <defs
     id="defs4" />
  <sodipodi:namedview
     id="base"
     pagecolor="#ffffff"
     bordercolor="#666666"
     borderopacity="1.0"
     inkscape:pageopacity="0.0"
     inkscape:pageshadow="2"
     inkscape:zoom="0.49497475"
     inkscape:cx="-34.943533"
     inkscape:cy="355.95042"
     inkscape:document-units="px"
     inkscape:current-layer="layer1"
     showgrid="true"
     inkscape:showpageshadow="false"
     inkscape:window-width="1280"
     inkscape:window-height="776"
     inkscape:window-x="0"
     inkscape:window-y="24"
     inkscape:window-maximized="1">
    <inkscape:grid
       type="xygrid"
       id="grid2985"
       empspacing="5"
       visible="true"
       enabled="true"
       snapvisiblegridlinesonly="true" />
  </sodipodi:namedview>
  <metadata
     id="metadata7">
    <rdf:RDF>
      <cc:Work
         rdf:about="">
        <dc:format>image/svg+xml</dc:format>
        <dc:type
           rdf:resource="http://purl.org/dc/dcmitype/StillImage" />
        <dc:title></dc:title>
      </cc:Work>
    </rdf:RDF>
  </metadata>
  <g
     inkscape:label="Layer 1"
     inkscape:groupmode="layer"
     id="layer1"
     transform="translate(0,-352.36218)">
    <path
       sodipodi:type="star"
       style="fill:#ffffff;fill-opacity:1;stroke:none"
       id="path3765"
       sodipodi:sides="6"
       sodipodi:cx="70"
       sodipodi:cy="110"
       sodipodi:r1="214.70911"
       sodipodi:r2="185.94354"
       sodipodi:arg1="0.52359878"
       sodipodi:arg2="1.0471976"
       inkscape:flatsided="true"
       inkscape:rounded="0"
       inkscape:randomized="0"
       d="M 255.94354,217.35455 69.999999,324.70911 -115.94354,217.35455 l 0,-214.709104 L 70.000001,-104.70911 255.94354,2.6454476 z"
       transform="matrix(0,0.5550145,-0.5550145,0,412.87129,651.0218)" />
    <path
       style="fill:#009cdf;fill-opacity:1;stroke:none"
       d="m 364.29046,632.98726 49.02065,0 -46.44061,72.24095 -26.47382,41.18152 -50.92721,0.099 47.98567,-70.69591 z"
       id="path3897"
       inkscape:connector-curvature="0"
       sodipodi:nodetypes="ccccccc" />
    <path
       style="fill:#009cdf;fill-opacity:1;stroke:none"
       d="m 382.3507,705.22821 15.4802,0 15.48021,46.44062 -33.54044,0 -2.58004,-5.16007 -20.64027,0 z"
       id="path2984"
       inkscape:connector-curvature="0"
       sodipodi:nodetypes="ccccccc" />
    <path
       style="fill:#009cdf;fill-opacity:1;stroke:none"
       d="m 307.52971,674.2678 -18.06024,-46.44061 36.12048,0 2.58003,5.16007 20.64028,0 -25.80034,41.28054 z"
       id="path3753"
       inkscape:connector-curvature="0"
       sodipodi:nodetypes="ccccccc" />
    <path
       sodipodi:type="arc"
       style="fill:none;stroke:#ffffff;stroke-width:20;stroke-linecap:round;stroke-linejoin:round;stroke-miterlimit:4;stroke-opacity:1;stroke-dasharray:none"
       id="path3006"
       sodipodi:cx="360"
       sodipodi:cy="350"
       sodipodi:rx="440"
       sodipodi:ry="171.81725"
       d="m 800,350 a 440,171.81725 0 1 1 -880,0 440,171.81725 0 1 1 880,0 z"
       transform="matrix(0.72222222,0,0,0.72222222,90.258915,436.44434)" />
    <path
       sodipodi:type="arc"
       style="fill:none;stroke:#ffffff;stroke-width:20;stroke-linecap:round;stroke-linejoin:round;stroke-miterlimit:4;stroke-opacity:1;stroke-dasharray:none"
       id="path3006-7"
       sodipodi:cx="360"
       sodipodi:cy="350"
       sodipodi:rx="440"
       sodipodi:ry="171.81725"
       d="m 800,350 a 440,171.81725 0 1 1 -880,0 440,171.81725 0 1 1 880,0 z"
       transform="matrix(0.36174637,0.62509559,-0.62509559,0.36174637,439.32577,337.99773)" />
    <path
       sodipodi:type="arc"
       style="fill:none;stroke:#ffffff;stroke-width:20;stroke-linecap:round;stroke-linejoin:round;stroke-miterlimit:4;stroke-opacity:1;stroke-dasharray:none"
       id="path3006-7-3"
       sodipodi:cx="360"
       sodipodi:cy="350"
       sodipodi:rx="440"
       sodipodi:ry="171.81725"
       d="m 800,350 a 440,171.81725 0 1 1 -880,0 440,171.81725 0 1 1 880,0 z"
       transform="matrix(-0.36174637,0.62509559,0.62509559,0.36174637,261.37704,337.71689)" />
  </g>
</svg>
