<?xml version="1.0" encoding="UTF-8" standalone="no"?>
<!-- Generator: Adobe Illustrator 18.1.1, SVG Export Plug-In . SVG Version: 6.00 Build 0)  -->

<svg
   xmlns:dc="http://purl.org/dc/elements/1.1/"
   xmlns:cc="http://creativecommons.org/ns#"
   xmlns:rdf="http://www.w3.org/1999/02/22-rdf-syntax-ns#"
   xmlns:svg="http://www.w3.org/2000/svg"
   xmlns="http://www.w3.org/2000/svg"
   xmlns:sodipodi="http://sodipodi.sourceforge.net/DTD/sodipodi-0.dtd"
   xmlns:inkscape="http://www.inkscape.org/namespaces/inkscape"
   version="1.1"
   id="Layer_1"
   x="0px"
   y="0px"
   width="158.5px"
   height="158.5px"
   viewBox="0 0 158.5 158.5"
   enable-background="new 0 0 158.5 158.5"
   xml:space="preserve"
   inkscape:version="0.91 r13725"
   sodipodi:docname="api.svg"><metadata
     id="metadata17"><rdf:RDF><cc:Work
         rdf:about=""><dc:format>image/svg+xml</dc:format><dc:type
           rdf:resource="http://purl.org/dc/dcmitype/StillImage" /></cc:Work></rdf:RDF></metadata><defs
     id="defs15" /><sodipodi:namedview
     pagecolor="#ffffff"
     bordercolor="#666666"
     borderopacity="1"
     objecttolerance="10"
     gridtolerance="10"
     guidetolerance="10"
     inkscape:pageopacity="0"
     inkscape:pageshadow="2"
     inkscape:window-width="725"
     inkscape:window-height="480"
     id="namedview13"
     showgrid="false"
     inkscape:zoom="1.488959"
     inkscape:cx="79.25"
     inkscape:cy="79.25"
     inkscape:window-x="0"
     inkscape:window-y="0"
     inkscape:window-maximized="0"
     inkscape:current-layer="Layer_1" /><polygon
     style="fill:#009cdf;fill-opacity:1"
     id="polygon5"
     points="117.1,13.6 133.3,25.4 144.6,41.1 117.1,41.1 " /><polygon
     style="fill:#009cdf;fill-opacity:1"
     id="polygon7"
     points="41.8,100.1 6.3,100.1 3,79.3 6.3,58.5 41.8,58.5 " /><rect
     style="fill:#009cdf;fill-opacity:1"
     id="rect9"
     height="41.599998"
     width="41.599998"
     y="58.5"
     x="58.5" /><path
     style="fill:#323838"
     inkscape:connector-curvature="0"
     id="path11"
     d="M 79.3,0 C 35.6,0 0,35.6 0,79.3 0,123 35.6,158.6 79.3,158.6 123,158.6 158.6,123 158.6,79.3 158.6,35.6 123,0 79.3,0 Z m 73.2,79.3 c 0,6.1 -0.8,12.1 -2.2,17.8 l -11.1,0 0,-7 9.8,0 0,-21.6 -21.6,0 0,21.6 9.8,0 0,7 -17.5,0 0,-35.6 30.6,0 c 1.5,5.7 2.2,11.6 2.2,17.8 z m -13.3,23.8 9.3,0 c -1.3,3.9 -3,7.7 -5,11.3 -1.4,-0.3 -2.9,-0.5 -4.4,-0.6 l 0,-10.7 z m -9.8,-15 0,-17.6 17.6,0 0,17.6 -17.6,0 z m -15.7,-32.6 0,47.6 23.5,0 0,10.7 c -12.3,0.5 -22.3,10.4 -22.8,22.8 l -11.4,0 0,-22.8 -47.5,0 0,34.9 c -3.7,-1.3 -7.2,-2.8 -10.6,-4.6 l 0,-30.2 -23.6,0 0,-10.6 23.5,0 0,-23 10.6,0 0,22.8 47.6,0 0,-47.6 -22.7,0 0,-10.7 22.8,0 0,-34.8 c 3.7,1.3 7.2,2.8 10.6,4.6 l 0,30.2 30.2,0 c 1.8,3.4 3.4,6.9 4.6,10.6 l -34.8,0 z m 0.8,83 c 0.1,1.6 0.3,3.1 0.6,4.6 -3.8,2.2 -7.9,4 -12.1,5.4 l 0,-10.1 11.5,0 z M 10,103.1 l 9.3,0 0,10.6 -4.7,0 c -1.8,-3.4 -3.3,-7 -4.6,-10.6 z m 51.5,-24.8 0,-16.8 16.8,0 2,0 16.8,0 0,35.6 -35.6,0 0,-16.8 0,-2 z m 78.8,-39.5 -20.6,0 0,-20.6 c 8.2,5.4 15.2,12.5 20.6,20.6 z M 97.1,8.2 l 0,30.6 -35.6,0 0,-30.6 C 67.2,6.8 73.1,6 79.3,6 85.4,6 91.4,6.8 97.1,8.2 Z m -41.6,1.8 0,34.9 22.8,0 0,10.6 -22.8,0 0,22.8 -10.7,0 0,-22.8 -34.8,0 C 17.3,34.2 34.2,17.3 55.5,10 Z m -47.3,51.5 30.6,0 0,16.8 0,2 0,16.8 -17.5,0 -2,0 -11.1,0 C 6.8,91.4 6,85.4 6,79.3 6,73.2 6.8,67.2 8.2,61.5 Z m 10,58.2 20.6,0 0,20.6 C 30.7,134.9 23.6,127.9 18.2,119.7 Z m 43.3,30.6 0,-30.6 35.6,0 0,16.8 -7,0 0,-9.8 -21.6,0 0,21.6 21.6,0 0,-9.8 7,0 0,11.9 c -5.7,1.4 -11.7,2.2 -17.8,2.2 -6.2,-0.1 -12.1,-0.8 -17.8,-2.3 z m 26.6,-21.6 0,17.6 -17.6,0 0,-17.6 17.6,0 z m 32.5,11 c -0.1,-0.7 -0.2,-1.5 -0.2,-2.2 0,-9.8 8,-17.8 17.8,-17.8 0.7,0 1.4,0.1 2,0.1 -5.2,7.8 -11.9,14.6 -19.6,19.9 z" /></svg>