<?xml version="1.0" encoding="UTF-8" standalone="no"?>
<svg
   xmlns:dc="http://purl.org/dc/elements/1.1/"
   xmlns:cc="http://creativecommons.org/ns#"
   xmlns:rdf="http://www.w3.org/1999/02/22-rdf-syntax-ns#"
   xmlns:svg="http://www.w3.org/2000/svg"
   xmlns="http://www.w3.org/2000/svg"
   xmlns:sodipodi="http://sodipodi.sourceforge.net/DTD/sodipodi-0.dtd"
   xmlns:inkscape="http://www.inkscape.org/namespaces/inkscape"
   width="158.5"
   height="158.5"
   viewBox="0 0 158.5 158.5"
   id="svg2"
   version="1.1"
   inkscape:version="0.91 r13725"
   sodipodi:docname="ux.svg">
  <metadata
     id="metadata20">
    <rdf:RDF>
      <cc:Work
         rdf:about="">
        <dc:format>image/svg+xml</dc:format>
        <dc:type
           rdf:resource="http://purl.org/dc/dcmitype/StillImage" />
      </cc:Work>
    </rdf:RDF>
  </metadata>
  <defs
     id="defs18" />
  <sodipodi:namedview
     pagecolor="#ffffff"
     bordercolor="#666666"
     borderopacity="1"
     objecttolerance="10"
     gridtolerance="10"
     guidetolerance="10"
     inkscape:pageopacity="0"
     inkscape:pageshadow="2"
     inkscape:window-width="725"
     inkscape:window-height="480"
     id="namedview16"
     showgrid="false"
     inkscape:zoom="1.488959"
     inkscape:cx="79.25"
     inkscape:cy="79.25"
     inkscape:window-x="0"
     inkscape:window-y="0"
     inkscape:window-maximized="0"
     inkscape:current-layer="svg2" />
  <path
     d="M153.8 94.5H93.9V79.3h61.6l-1.7-12.5H81.3v55.5h60.2z"
     id="path4"
     fill="#E95F33"
     style="fill:#009cdf;fill-opacity:0.94117647" />
  <circle
     cx="53.1"
     cy="52.8"
     r="4.2"
     id="circle6"
     fill="#E95F33"
     style="fill:#009cdf;fill-opacity:1" />
  <circle
     cx="64.9"
     cy="52.8"
     r="4.2"
     id="circle8"
     fill="#E95F33"
     style="fill:#009cdf;fill-opacity:1" />
  <circle
     cx="76.7"
     cy="52.8"
     r="4.2"
     id="circle10"
     fill="#E95F33"
     style="fill:#009cdf;fill-opacity:1" />
  <path
     style="fill:#323838"
     inkscape:connector-curvature="0"
     id="path14"
     d="m 53.1,58 c 2.9,0 5.2,-2.3 5.2,-5.2 0,-2.9 -2.3,-5.2 -5.2,-5.2 -2.9,0 -5.2,2.3 -5.2,5.2 0,2.9 2.3,5.2 5.2,5.2 z m 0,-8.4 c 1.8,0 3.2,1.4 3.2,3.2 0,1.8 -1.5,3.2 -3.2,3.2 -1.7,0 -3.2,-1.4 -3.2,-3.2 0,-1.8 1.4,-3.2 3.2,-3.2 z M 64.9,58 c 2.9,0 5.2,-2.3 5.2,-5.2 0,-2.9 -2.3,-5.2 -5.2,-5.2 -2.9,0 -5.2,2.3 -5.2,5.2 0,2.9 2.4,5.2 5.2,5.2 z m 0,-8.4 c 1.8,0 3.2,1.4 3.2,3.2 0,1.8 -1.4,3.2 -3.2,3.2 -1.8,0 -3.2,-1.4 -3.2,-3.2 0,-1.8 1.5,-3.2 3.2,-3.2 z M 76.7,58 c 2.9,0 5.2,-2.3 5.2,-5.2 0,-2.9 -2.3,-5.2 -5.2,-5.2 -2.9,0 -5.2,2.3 -5.2,5.2 0,2.9 2.4,5.2 5.2,5.2 z m 0,-8.4 c 1.8,0 3.2,1.4 3.2,3.2 0,1.8 -1.4,3.2 -3.2,3.2 -1.8,0 -3.2,-1.4 -3.2,-3.2 0,-1.8 1.5,-3.2 3.2,-3.2 z m -29.2,62.5 26,0 0,2 -26,0 z m 0,6.8 26,0 0,2 -26,0 z m 0,6.9 26,0 0,2 -26,0 z m 0,6.8 26,0 0,2 -26,0 z m 0,6.8 26,0 0,2 -26,0 z M 79.3,0 C 35.6,0 0,35.6 0,79.3 0,123 35.6,158.6 79.3,158.6 123,158.6 158.6,123 158.6,79.3 158.6,35.6 123,0 79.3,0 Z m 71.8,93.5 -56.2,0 0,-13.2 57.6,0 c -0.1,4.5 -0.5,8.9 -1.4,13.2 z m -58.2,-15.2 0,17.2 57.8,0 c -0.4,1.9 -0.9,3.8 -1.5,5.6 l -56.3,0 0,2 55.6,0 c -0.6,1.8 -1.3,3.6 -2.1,5.3 l -53.5,0 0,2 52.7,0 c -1.4,3.1 -3.1,6 -5,8.8 l -56.3,0 0,-50 67.6,0 c 0.4,2.9 0.6,6 0.7,9 l -59.7,0 z m -43.2,68 c -2.3,-1 -4.5,-2.2 -6.7,-3.4 l 0,-35.6 35.3,0 0,45.2 C 70,152.4 62.1,150.9 54.7,148.3 l 18.8,0 0,-2 -23.8,0 z m 95.6,-98.7 -58,0 0,10.4 62,0 c 0.5,1.7 1,3.5 1.4,5.3 L 43,63.3 43,43 l 99.9,0 c 0.8,1.5 1.7,3 2.4,4.6 z m 3.4,8.4 -59.4,0 0,-6.4 56.9,0 c 0.9,2.1 1.8,4.2 2.5,6.4 z m -88,28.1 -16,-14.8 32.3,0 -16.3,14.8 z m 17.6,-13.3 0,29.6 L 62.1,85.5 78.3,70.8 Z M 59.2,85.5 43,100.2 43,70.4 59.2,85.5 Z m 1.5,1.3 15.6,14.4 -31.5,0 15.9,-14.4 z M 6,79.3 C 6,38.9 38.9,6 79.3,6 c 24.6,0 46.5,12.2 59.8,31 L 37,37 37,139 C 18.2,125.7 6,103.9 6,79.3 Z m 123.4,53.3 -37.1,0 0,2 34.9,0 c -2,1.7 -4,3.3 -6.2,4.8 l -28.7,0 0,2 25.7,0 c -2.9,1.8 -6,3.4 -9.1,4.8 l -16.6,0 0,2 11.6,0 c -6.2,2.2 -12.8,3.6 -19.6,4.1 l 0,-27.1 52,0 c -2.2,2.7 -4.5,5.1 -6.9,7.4 z" />
</svg>
